<svg width="113" height="36" viewBox="0 0 113 36" fill="none" xmlns="http://www.w3.org/2000/svg">
<mask id="mask0_1293_22090" style="mask-type:alpha" maskUnits="userSpaceOnUse" x="0" y="0" width="113" height="36">
<path fill-rule="evenodd" clip-rule="evenodd" d="M0 0H112.551V36H0L0 0Z" fill="white"/>
</mask>
<g mask="url(#mask0_1293_22090)">
<path fill-rule="evenodd" clip-rule="evenodd" d="M94.5455 0H18.0058C8.06116 0 0 8.10583 0 18.105C0 28.1041 7.85183 36.0006 17.7964 36.0006H94.3362C104.28 36.0006 112.551 28.1041 112.551 18.105C112.551 8.10583 104.49 0 94.5455 0Z" fill="#7C47E1"/>
<path fill-rule="evenodd" clip-rule="evenodd" d="M93.8405 31.5517C86.441 31.5517 80.4215 25.4988 80.4215 18.0584C80.4215 10.6179 86.441 4.56506 93.8405 4.56506C101.239 4.56506 107.259 10.6179 107.259 18.0584C107.259 25.4988 101.239 31.5517 93.8405 31.5517Z" fill="white"/>
<path fill-rule="evenodd" clip-rule="evenodd" d="M93.841 27.2603C88.7861 27.2603 84.6886 23.1396 84.6886 18.0572C84.6886 12.9743 88.7861 8.85413 93.841 8.85413C98.8954 8.85413 102.993 12.9743 102.993 18.0572C102.993 23.1396 98.8954 27.2603 93.841 27.2603Z" fill="#44CB86"/>
<path fill-rule="evenodd" clip-rule="evenodd" d="M18.6907 27.2053C13.6727 27.2053 9.591 23.1005 9.591 18.0553C9.591 13.0095 13.6727 8.90463 18.6907 8.90463C23.7081 8.90463 27.7903 13.0095 27.7903 18.0553C27.7903 23.1005 23.7081 27.2053 18.6907 27.2053ZM32.0994 18.0557C32.0994 10.6229 26.0859 4.57556 18.6941 4.57556C11.3022 4.57556 5.2887 10.6229 5.2887 18.0557C5.2887 25.488 11.3022 31.5354 18.6941 31.5354C22.2038 31.5354 25.4014 30.1718 27.7937 27.9445V29.3709C27.7937 30.566 28.7578 31.5354 29.9469 31.5354C31.1354 31.5354 32.0994 30.566 32.0994 29.3709V18.4882C32.0994 18.4456 32.0978 18.4051 32.0956 18.3668C32.0978 18.2635 32.0994 18.1596 32.0994 18.0557Z" fill="white"/>
<path fill-rule="evenodd" clip-rule="evenodd" d="M48.4059 31.5518C40.9629 31.5518 34.907 25.4623 34.907 17.9782C34.907 10.4929 40.9629 4.40448 48.4059 4.40448C51.7438 4.40448 54.9484 5.639 57.4283 7.88114C58.3179 8.68538 58.3907 10.062 57.5915 10.9565C56.7916 11.8515 55.422 11.9242 54.533 11.12C52.8486 9.59787 50.6726 8.75973 48.4059 8.75973C43.3509 8.75973 39.2382 12.8947 39.2382 17.9782C39.2382 23.0611 43.3509 27.1966 48.4059 27.1966C50.6743 27.1966 52.8513 26.3573 54.5358 24.8331C55.4247 24.0283 56.7944 24.101 57.5942 24.9949C58.3945 25.8888 58.3222 27.2655 57.4338 28.0702C54.9522 30.3151 51.7465 31.5518 48.4059 31.5518Z" fill="white"/>
<path fill-rule="evenodd" clip-rule="evenodd" d="M80.6086 27.5929L68.9915 17.7928L80.6086 8.19548C81.5242 7.43279 81.6509 6.06815 80.8919 5.14746C80.1329 4.22731 78.7752 4.09992 77.8601 4.86316L65.2736 15.3582V6.52959C65.2736 5.33389 64.3096 4.36509 63.1205 4.36509C61.9319 4.36509 60.9679 5.33389 60.9679 6.52959V29.2588C60.9679 30.4545 61.9319 31.4239 63.1205 31.4239C64.3096 31.4239 65.2736 30.4545 65.2736 29.2588V20.4302L77.8601 30.9252C78.2625 31.2604 78.7491 31.4239 79.2336 31.4239C79.8518 31.4239 80.4662 31.1571 80.8919 30.6409C81.6509 29.7208 81.5242 28.3562 80.6086 27.5929Z" fill="white"/>
</g>
</svg>
